<?xml version="1.0" encoding="UTF-8" standalone="no"?>
<!-- Created with Inkscape (http://www.inkscape.org/) -->

<svg
   width="60"
   height="60"
   viewBox="0 0 15.875 15.875"
   version="1.1"
   id="svg1"
   xml:space="preserve"
   sodipodi:docname="archivesvg.svg"
   inkscape:version="1.3.2 (091e20e, 2023-11-25)"
   xmlns:inkscape="http://www.inkscape.org/namespaces/inkscape"
   xmlns:sodipodi="http://sodipodi.sourceforge.net/DTD/sodipodi-0.dtd"
   xmlns="http://www.w3.org/2000/svg"
   xmlns:svg="http://www.w3.org/2000/svg"><sodipodi:namedview
     id="namedview1"
     pagecolor="#ffffff"
     bordercolor="#666666"
     borderopacity="1.0"
     inkscape:showpageshadow="2"
     inkscape:pageopacity="0.0"
     inkscape:pagecheckerboard="0"
     inkscape:deskcolor="#d1d1d1"
     showgrid="false"
     inkscape:zoom="4.1125241"
     inkscape:cx="-14.103261"
     inkscape:cy="50.212472"
     inkscape:window-width="1440"
     inkscape:window-height="900"
     inkscape:window-x="0"
     inkscape:window-y="0"
     inkscape:window-maximized="0"
     inkscape:current-layer="svg1" /><defs
     id="defs1" /><g
     id="layer1"
     style="stroke:#666666;stroke-opacity:1"><path
       style="fill:none;stroke:#666666;stroke-width:0.79375;stroke-linecap:round;stroke-linejoin:round;stroke-dasharray:none;stroke-opacity:1"
       d="M 0.52916663,8.4666663 V 12.699999 A 1.0583333,1.0583333 45 0 0 1.5874999,13.758332 H 14.287499 a 1.0583333,1.0583333 135 0 0 1.058333,-1.058333 V 8.4666663 A 1.0583333,1.0583333 45 0 0 14.287499,7.408333 H 11.641666 A 0.8562096,0.8562096 148.28253 0 0 10.875848,7.881634 L 10.318749,8.9958327 H 5.5562497 L 4.9991502,7.881634 A 0.8562096,0.8562096 31.717472 0 0 4.2333331,7.408333 H 1.5874999 A 1.0583333,1.0583333 135 0 0 0.52916663,8.4666663 Z"
       id="path1" /><path
       style="fill:none;stroke:#666666;stroke-width:0.79375;stroke-linecap:round;stroke-linejoin:round;stroke-dasharray:none;stroke-opacity:1"
       d="m 6.0854163,10.583333 h 3.7041664 v 1.5875 H 6.0854163 Z"
       id="path2" /><path
       style="fill:none;stroke:#666666;stroke-width:0.79375;stroke-linecap:round;stroke-linejoin:round;stroke-dasharray:none;stroke-opacity:1"
       d="M 4.233333,2.9104164 H 3.7041665 A 1.2234122,1.2234122 147.02449 0 0 2.5869495,3.635267 L 0.59552329,8.0978144"
       id="path3" /><path
       style="fill:none;stroke:#666666;stroke-width:0.79375;stroke-linecap:round;stroke-linejoin:round;stroke-dasharray:none;stroke-opacity:1"
       d="M 2.6458332,7.408333 V 6.0854163 H 13.229166 V 7.408333"
       id="path5" /><path
       style="fill:none;stroke:#666666;stroke-width:0.79375;stroke-linecap:round;stroke-linejoin:round;stroke-dasharray:none;stroke-opacity:1"
       d="M 3.439583,6.0854163 V 3.9687497 h 8.995833 v 2.1166666"
       id="path6" /><path
       style="fill:none;stroke:#666666;stroke-width:0.79375;stroke-linecap:round;stroke-linejoin:round;stroke-dasharray:none;stroke-opacity:1"
       d="M 4.233333,3.9687497 V 2.1166665 h 7.408333 v 1.8520832"
       id="path7" /><path
       style="fill:none;stroke:#666666;stroke-width:0.79375;stroke-linecap:round;stroke-linejoin:round;stroke-dasharray:none;stroke-opacity:1"
       d="M 4.233333,2.9104164 H 3.7041665 A 1.2234122,1.2234122 147.02449 0 0 2.5869495,3.635267 L 0.59552329,8.0978144"
       id="path8"
       transform="matrix(-1,0,0,1,15.874999,0)" /></g></svg>
