<?xml version="1.0" encoding="UTF-8" standalone="no"?>
<!-- Created with Inkscape (http://www.inkscape.org/) -->

<svg
   width="50"
   height="60"
   viewBox="0 0 13.229167 15.875"
   version="1.1"
   id="svg1"
   xml:space="preserve"
   inkscape:version="1.3.2 (091e20e, 2023-11-25)"
   sodipodi:docname="cite.svg"
   xmlns:inkscape="http://www.inkscape.org/namespaces/inkscape"
   xmlns:sodipodi="http://sodipodi.sourceforge.net/DTD/sodipodi-0.dtd"
   xmlns="http://www.w3.org/2000/svg"
   xmlns:svg="http://www.w3.org/2000/svg"><sodipodi:namedview
     id="namedview1"
     pagecolor="#ffffff"
     bordercolor="#666666"
     borderopacity="1.0"
     inkscape:showpageshadow="2"
     inkscape:pageopacity="0.0"
     inkscape:pagecheckerboard="0"
     inkscape:deskcolor="#d1d1d1"
     inkscape:document-units="px"
     showgrid="true"
     inkscape:zoom="5.3129988"
     inkscape:cx="22.209679"
     inkscape:cy="30.86769"
     inkscape:window-width="1384"
     inkscape:window-height="847"
     inkscape:window-x="62"
     inkscape:window-y="25"
     inkscape:window-maximized="0"
     inkscape:current-layer="layer1"><inkscape:grid
       id="grid1"
       units="px"
       originx="0"
       originy="0"
       spacingx="0.26458333"
       spacingy="0.26458333"
       empcolor="#e500e2"
       empopacity="0.30196078"
       color="#0099e5"
       opacity="0.14901961"
       empspacing="6"
       dotted="false"
       gridanglex="30"
       gridanglez="30"
       visible="true" /></sodipodi:namedview><defs
     id="defs1"><inkscape:path-effect
       effect="spiro"
       id="path-effect3"
       is_visible="true"
       lpeversion="1" /><inkscape:path-effect
       effect="spiro"
       id="path-effect1"
       is_visible="true"
       lpeversion="1" /></defs><g
     inkscape:label="Layer 1"
     inkscape:groupmode="layer"
     id="layer1"><g
       id="g3"
       style="stroke:#666666;stroke-width:1.27223;stroke-opacity:1"
       transform="matrix(0.78926759,0,0,0.78278779,0.22518036,-0.31554748)"><path
         style="fill:none;stroke:#666666;stroke-width:1.00983;stroke-linecap:round;stroke-linejoin:round;stroke-dasharray:none;stroke-opacity:1"
         d="M 0.89366257,13.125776 C 1.2448925,13.057725 1.5875749,12.945679 1.9111622,12.793086 2.3099258,12.605042 2.681565,12.353543 2.9837533,12.032521 3.1797796,11.824277 3.345821,11.58746 3.4712947,11.330462 3.6246318,11.016393 3.7174052,10.662122 3.6663111,10.316375 3.6096529,9.9329769 3.3784786,9.590022 3.0812615,9.3412928 2.7490405,9.0632702 2.3399916,8.8933804 1.9891688,8.6392334 1.64753,8.3917395 1.3654321,8.0662193 1.1505977,7.7031539 0.89155575,7.2653786 0.72813401,6.7680373 0.70205959,6.2600313 0.66854383,5.6070463 0.86287503,4.9542317 1.189601,4.3878724 1.4943172,3.8596657 1.921882,3.3927902 2.4572086,3.1007632 2.9375591,2.8387263 3.4930013,2.7248203 4.0397472,2.7464732 4.6757989,2.7716629 5.3030804,2.979111 5.8309948,3.3347832 6.4099174,3.7248211 6.8663033,4.2907423 7.1376058,4.9339187 7.4083181,5.5756959 7.4956034,6.28814 7.4301307,6.9815926 7.355137,7.7758869 7.0855359,8.5405772 6.7475726,9.2632862 6.4923411,9.8090794 6.1949435,10.33916 5.8114932,10.803917 5.4705706,11.217129 5.0644847,11.574706 4.6218924,11.876508 4.1499466,12.198326 3.6361579,12.457446 3.1007632,12.656574 2.3932705,12.91971 1.6470135,13.078355 0.89366257,13.125776"
         id="path1"
         inkscape:path-effect="#path-effect1"
         inkscape:original-d="M 0.89366257,13.125776 C 0.75181025,12.353226 1.5406308,12.916596 1.9111622,12.793086 2.2816937,12.669575 2.6262229,12.286043 2.9837533,12.032521 3.3412837,11.779 3.308781,11.564481 3.4712947,11.330462 3.6338084,11.096442 3.6013056,10.654404 3.6663111,10.316375 3.7313166,9.978347 3.276278,9.6663205 3.0812615,9.3412928 2.8862451,9.0162654 2.3531997,8.8732531 1.9891688,8.6392334 1.6251379,8.4052134 1.4301214,8.0151802 1.1505977,7.7031539 0.87107394,7.3911274 0.85157227,6.7410721 0.70205959,6.2600313 0.55254691,5.7789905 1.0270872,5.0119253 1.189601,4.3878724 1.3521148,3.7638196 2.0346727,3.5297996 2.4572086,3.1007632 2.8797445,2.6717267 3.578208,2.8959858 4.0397472,2.7464732 4.5012863,2.5969605 5.1679387,3.1072637 5.8309948,3.3347832 6.4940513,3.5623023 6.7020688,4.4008735 7.1376058,4.9339187 7.5731427,5.4669639 7.3326225,6.2990346 7.4301307,6.9815926 7.5276389,7.6641504 6.9750921,8.5027216 6.7475726,9.2632862 6.5200534,10.023851 6.1235198,10.290373 5.8114932,10.803917 5.4994669,11.317461 5.0184258,11.518978 4.6218924,11.876508 4.2253587,12.234038 3.6078062,12.396552 3.1007632,12.656574 2.5937201,12.916596 1.0556085,14.007759 0.89366257,13.125776"
         sodipodi:nodetypes="cssssssssssssssssssc" /><path
         style="fill:none;stroke:#666666;stroke-width:1.00983;stroke-linecap:round;stroke-linejoin:round;stroke-dasharray:none;stroke-opacity:1"
         d="M 0.89366257,13.125776 C 1.2448925,13.057725 1.5875749,12.945679 1.9111622,12.793086 2.3099258,12.605042 2.681565,12.353543 2.9837533,12.032521 3.1797796,11.824277 3.345821,11.58746 3.4712947,11.330462 3.6246318,11.016393 3.7174052,10.662122 3.6663111,10.316375 3.6096529,9.9329769 3.3784786,9.590022 3.0812615,9.3412928 2.7490405,9.0632702 2.3399916,8.8933804 1.9891688,8.6392334 1.64753,8.3917395 1.3654321,8.0662193 1.1505977,7.7031539 0.89155575,7.2653786 0.72813401,6.7680373 0.70205959,6.2600313 0.66854383,5.6070463 0.86287503,4.9542317 1.189601,4.3878724 1.4943172,3.8596657 1.921882,3.3927902 2.4572086,3.1007632 2.9375591,2.8387263 3.4930013,2.7248203 4.0397472,2.7464732 4.6757989,2.7716629 5.3030804,2.979111 5.8309948,3.3347832 6.4099174,3.7248211 6.8663033,4.2907423 7.1376058,4.9339187 7.4083181,5.5756959 7.4956034,6.28814 7.4301307,6.9815926 7.355137,7.7758869 7.0855359,8.5405772 6.7475726,9.2632862 6.4923411,9.8090794 6.1949435,10.33916 5.8114932,10.803917 5.4705706,11.217129 5.0644847,11.574706 4.6218924,11.876508 4.1499466,12.198326 3.6361579,12.457446 3.1007632,12.656574 2.3932705,12.91971 1.6470135,13.078355 0.89366257,13.125776"
         id="path2"
         inkscape:path-effect="#path-effect3"
         inkscape:original-d="M 0.89366257,13.125776 C 0.75181025,12.353226 1.5406308,12.916596 1.9111622,12.793086 2.2816937,12.669575 2.6262229,12.286043 2.9837533,12.032521 3.3412837,11.779 3.308781,11.564481 3.4712947,11.330462 3.6338084,11.096442 3.6013056,10.654404 3.6663111,10.316375 3.7313166,9.978347 3.276278,9.6663205 3.0812615,9.3412928 2.8862451,9.0162654 2.3531997,8.8732531 1.9891688,8.6392334 1.6251379,8.4052134 1.4301214,8.0151802 1.1505977,7.7031539 0.87107394,7.3911274 0.85157227,6.7410721 0.70205959,6.2600313 0.55254691,5.7789905 1.0270872,5.0119253 1.189601,4.3878724 1.3521148,3.7638196 2.0346727,3.5297996 2.4572086,3.1007632 2.8797445,2.6717267 3.578208,2.8959858 4.0397472,2.7464732 4.5012863,2.5969605 5.1679387,3.1072637 5.8309948,3.3347832 6.4940513,3.5623023 6.7020688,4.4008735 7.1376058,4.9339187 7.5731427,5.4669639 7.3326225,6.2990346 7.4301307,6.9815926 7.5276389,7.6641504 6.9750921,8.5027216 6.7475726,9.2632862 6.5200534,10.023851 6.1235198,10.290373 5.8114932,10.803917 5.4994669,11.317461 5.0184258,11.518978 4.6218924,11.876508 4.2253587,12.234038 3.6078062,12.396552 3.1007632,12.656574 2.5937201,12.916596 1.0556085,14.007759 0.89366257,13.125776"
         sodipodi:nodetypes="cssssssssssssssssssc"
         transform="translate(8.0414531)" /></g></g></svg>
