<?xml version="1.0" encoding="UTF-8" standalone="no"?>
<!-- Created with Inkscape (http://www.inkscape.org/) -->

<svg
   width="60"
   height="60"
   viewBox="0 0 15.875 15.875"
   version="1.1"
   id="svg1"
   xml:space="preserve"
   xmlns="http://www.w3.org/2000/svg"
   xmlns:svg="http://www.w3.org/2000/svg"><defs
     id="defs1" /><g
     id="layer1"><g
       id="g12"
       transform="translate(0.00357932)"
       style="stroke:#666666;stroke-opacity:1"><path
         style="fill:none;stroke:#666666;stroke-width:0.79375;stroke-linecap:round;stroke-linejoin:round;stroke-dasharray:none;stroke-opacity:1"
         d="M 12.170833,4.4979164 V 1.3229169 A 0.79375026,0.79375026 45 0 0 11.377083,0.52916663 H 3.1749997 L 0.52916663,3.1749997 V 15.345832 H 11.377084 a 0.79374922,0.79374922 135.00002 0 0 0.793749,-0.793749"
         id="path1" /><path
         style="fill:none;stroke:#666666;stroke-width:0.79375;stroke-linecap:round;stroke-linejoin:round;stroke-dasharray:none;stroke-opacity:1"
         d="M 0.52916663,3.1749997 H 2.3812499 A 0.79374983,0.79374983 135 0 0 3.1749997,2.3812499 V 0.52916663"
         id="path2" /><circle
         style="fill:none;stroke:#666666;stroke-width:0.79375;stroke-linecap:round;stroke-linejoin:round;stroke-dasharray:none;stroke-opacity:1"
         id="path3"
         cx="12.170833"
         cy="8.598958"
         r="1.7197918" /><path
         style="fill:none;stroke:#666666;stroke-width:0.422106;stroke-linecap:round;stroke-linejoin:round;stroke-dasharray:none;stroke-opacity:1"
         id="path4"
         d="M 9.657291,5.7149992 C 9.549879,5.8492642 9.609091,6.0252769 9.4705886,6.1271667 9.3320863,6.2290565 9.1816817,6.1201299 9.0215276,6.1827008 8.8613736,6.2452717 8.8246463,6.4273092 8.6537549,6.4462971 8.4828634,6.4652851 8.4070725,6.2957496 8.2370896,6.2698605 8.0671067,6.2439715 7.9442812,6.383257 7.7867908,6.3142553 7.6293005,6.2452536 7.6484314,6.0605361 7.5141664,5.9531241 7.3799014,5.8457121 7.2038886,5.9049241 7.1019989,5.7664218 7.0001091,5.6279194 7.1090357,5.4775148 7.0464648,5.3173607 6.9838939,5.1572067 6.8018563,5.1204794 6.7828684,4.949588 6.7638805,4.7786965 6.933416,4.7029056 6.959305,4.5329227 6.985194,4.3629398 6.8459085,4.2401143 6.9149102,4.0826239 6.9839119,3.9251336 7.1686294,3.9442645 7.2760414,3.8099995 7.3834535,3.6757345 7.3242414,3.4997217 7.4627438,3.397832 7.6012462,3.2959422 7.7516508,3.4048688 7.9118048,3.3422979 8.0719589,3.279727 8.1086861,3.0976895 8.2795776,3.0787015 8.450469,3.0597136 8.52626,3.2292491 8.6962429,3.2551381 8.8662258,3.2810271 8.9890513,3.1417416 9.1465416,3.2107433 9.3040319,3.279745 9.284901,3.4644625 9.419166,3.5718746 c 0.1342651,0.107412 0.3102778,0.0482 0.4121676,0.1867023 0.1018898,0.1385024 -0.00704,0.288907 0.055534,0.449061 C 9.9494386,4.367792 10.131476,4.4045192 10.150464,4.5754107 10.169452,4.7463021 9.9999165,4.8220931 9.9740274,4.992076 9.9481384,5.1620589 10.087424,5.2848844 10.018422,5.4423747 9.9494205,5.599865 9.764703,5.5807341 9.657291,5.7149992 Z"
         transform="matrix(1.8800499,0,0,1.8808556,-3.7469223,-0.35861552)" /><path
         style="fill:none;stroke:#666666;stroke-width:0.79375;stroke-linecap:round;stroke-linejoin:round;stroke-dasharray:none;stroke-opacity:1"
         d="m 10.361753,10.824319 v 3.31978 l 1.80908,-0.737969"
         id="path5" /><path
         style="fill:none;stroke:#666666;stroke-width:0.79375;stroke-linecap:round;stroke-linejoin:round;stroke-dasharray:none;stroke-opacity:1"
         d="m 13.979913,11.211817 v 2.932282 l -1.80908,-0.737969"
         id="path6" /><path
         style="fill:none;stroke:#666666;stroke-width:0.79375;stroke-linecap:round;stroke-linejoin:round;stroke-dasharray:none;stroke-opacity:1"
         d="m 5.027083,1.8520832 h 5.291666 V 3.1749997 H 5.027083 Z"
         id="path7" /><path
         style="fill:none;stroke:#666666;stroke-width:0.79375;stroke-linecap:round;stroke-linejoin:round;stroke-dasharray:none;stroke-opacity:1"
         d="M 2.1166665,5.820833 H 7.9374994"
         id="path8" /><path
         style="fill:none;stroke:#666666;stroke-width:0.79375;stroke-linecap:round;stroke-linejoin:round;stroke-dasharray:none;stroke-opacity:1"
         d="M 2.1166665,7.408333 H 7.9374994"
         id="path9" /><path
         style="fill:none;stroke:#666666;stroke-width:0.79375;stroke-linecap:round;stroke-linejoin:round;stroke-dasharray:none;stroke-opacity:1"
         d="M 2.1166665,8.9958327 H 7.9374994"
         id="path10" /><path
         style="fill:none;stroke:#666666;stroke-width:0.79375;stroke-linecap:round;stroke-linejoin:round;stroke-dasharray:none;stroke-opacity:1"
         d="M 2.1166665,10.583333 H 7.9374994"
         id="path11" /><path
         style="fill:none;stroke:#666666;stroke-width:0.79375;stroke-linecap:round;stroke-linejoin:round;stroke-dasharray:none;stroke-opacity:1"
         d="M 2.1166665,13.229166 H 5.027083"
         id="path12" /></g></g></svg>
