<?xml version="1.0" encoding="UTF-8" standalone="no"?>
<!-- Created with Inkscape (http://www.inkscape.org/) -->

<svg
   width="60"
   height="60"
   viewBox="0 0 15.875 15.875"
   version="1.1"
   id="svg1"
   inkscape:version="1.3.2 (091e20e, 2023-11-25)"
   sodipodi:docname="technology.svg"
   xml:space="preserve"
   xmlns:inkscape="http://www.inkscape.org/namespaces/inkscape"
   xmlns:sodipodi="http://sodipodi.sourceforge.net/DTD/sodipodi-0.dtd"
   xmlns="http://www.w3.org/2000/svg"
   xmlns:svg="http://www.w3.org/2000/svg"><sodipodi:namedview
     id="namedview1"
     pagecolor="#ffffff"
     bordercolor="#666666"
     borderopacity="1.0"
     inkscape:showpageshadow="2"
     inkscape:pageopacity="0.0"
     inkscape:pagecheckerboard="0"
     inkscape:deskcolor="#d1d1d1"
     inkscape:document-units="px"
     showgrid="true"
     inkscape:zoom="7.0074308"
     inkscape:cx="5.0660507"
     inkscape:cy="30.895774"
     inkscape:window-width="1440"
     inkscape:window-height="900"
     inkscape:window-x="0"
     inkscape:window-y="0"
     inkscape:window-maximized="0"
     inkscape:current-layer="layer1"><inkscape:grid
       id="grid1"
       units="px"
       originx="0"
       originy="0"
       spacingx="0.26458333"
       spacingy="0.26458333"
       empcolor="#df00e5"
       empopacity="0.30196078"
       color="#0099e5"
       opacity="0.14901961"
       empspacing="6"
       dotted="false"
       gridanglex="30"
       gridanglez="30"
       visible="true" /></sodipodi:namedview><defs
     id="defs1" /><g
     inkscape:label="Layer 1"
     inkscape:groupmode="layer"
     id="layer1"><g
       id="g31"
       transform="translate(0.05659308,0.08198222)"><g
         id="g22"
         transform="rotate(-3,4.7624999,7.4090194)"><circle
           style="fill:none;stroke:#666666;stroke-width:0.79375;stroke-linecap:round;stroke-linejoin:round;stroke-dasharray:none"
           id="path4"
           cx="4.7624998"
           cy="7.4083328"
           r="1.5875" /><path
           style="fill:none;stroke:#666666;stroke-width:0.79375;stroke-linecap:round;stroke-linejoin:round;stroke-dasharray:none"
           d="M 3.9687498,4.2333331 4.233333,3.1749997 H 5.2916663 L 5.5562497,4.2333331 6.4467832,4.602204 7.3822265,4.040938 8.1305811,4.7892926 7.569315,5.7247361 7.9378428,6.6149263 8.9965196,6.8798528 V 7.938186 L 7.9378428,8.2024261 7.5693151,9.0933029 8.1305813,10.028746 7.3822267,10.777101 6.4467832,10.215835 5.5562497,10.58402 5.2916667,11.643039 H 4.2333332 L 3.9687497,10.58402 3.0782162,10.215835 2.1427734,10.777101 1.3944186,10.028746 1.9556842,9.0933029 1.5871565,8.2024261 0.5284802,7.9381865 0.52848034,6.8798529 1.5871565,6.6149262 1.9556841,5.7247359 1.3944182,4.7892932 2.1427732,4.0409384 3.0782162,4.602204 Z"
           id="path13"
           sodipodi:nodetypes="ccccccccccccccccccccccccccccccccc" /></g><g
         id="g23"
         transform="rotate(10,11.458001,5.090524)"><circle
           style="fill:none;stroke:#666666;stroke-width:0.79375;stroke-linecap:round;stroke-linejoin:round;stroke-dasharray:none"
           id="path14"
           cx="11.641665"
           cy="3.7041664"
           r="1.0583333" /><path
           style="fill:none;stroke:#666666;stroke-width:0.79375;stroke-linecap:round;stroke-linejoin:round;stroke-dasharray:none"
           d="m 11.112499,1.3229166 0.132293,-0.79374997 h 0.79375 l 0.132291,0.79374997 0.779669,0.3238058 0.654811,-0.4677207 0.561266,0.561266 -0.467722,0.6548098 0.323201,0.7800984 0.792893,0.1324689 v 0.79375 L 14.021201,4.2336859 13.697395,5.0133548 14.165116,5.668166 13.60385,6.229432 12.94904,5.76171 12.168766,6.0840537 12.036473,6.8778039 h -0.79375 L 11.110432,6.0840539 10.330763,5.7602483 9.675952,6.2279691 9.114686,5.6667031 9.5824082,5.0118932 9.2602402,4.232476 8.4663142,4.0993261 v -0.79375 L 9.2600643,3.1732851 9.5838698,2.3936162 9.116149,1.7388052 9.677415,1.1775391 l 0.65481,0.4677223 z"
           id="path23"
           sodipodi:nodetypes="ccccccccccccccccccccccccccccccccc" /></g><g
         id="g30"
         transform="rotate(2,10.206102,16.211885)"><circle
           style="fill:none;stroke:#666666;stroke-width:0.79375;stroke-linecap:round;stroke-linejoin:round;stroke-dasharray:none"
           id="path24"
           cx="11.641666"
           cy="11.641666"
           r="1.3229165" /><path
           style="fill:none;stroke:#666666;stroke-width:0.79375;stroke-linecap:round;stroke-linejoin:round;stroke-dasharray:none"
           d="m 10.847916,8.9958327 0.264583,-0.79375 h 1.058334 l 0.264583,0.7937501 0.515758,0.2132511 0.748355,-0.3741776 0.748355,0.7483552 -0.374178,0.7483545 0.212801,0.517132 0.79375,0.264583 1e-6,1.058335 -0.793751,0.264582 -0.213251,0.515758 0.374177,0.748356 -0.748355,0.748355 -0.748354,-0.374179 -0.516529,0.212088 -0.264584,0.79375 h -1.058334 l -0.264582,-0.79375 -0.515759,-0.21325 -0.748354,0.374177 -0.7483551,-0.748355 0.3741768,-0.748354 -0.2127995,-0.517133 -0.7937517,-0.264583 1e-7,-1.058335 L 8.995604,10.846211 9.2088549,10.330453 8.8346779,9.5820964 9.5830314,8.8337425 10.331387,9.2079211 Z"
           id="path29"
           sodipodi:nodetypes="ccccccccccccccccccccccccccccccccc"
           inkscape:transform-center-x="1.3230315"
           inkscape:transform-center-y="0.31582975" /></g></g></g></svg>
