<?xml version="1.0" encoding="UTF-8" standalone="no"?>
<svg
   id="Layer_1"
   version="1.1"
   viewBox="0 0 60 60"
   xmlns="http://www.w3.org/2000/svg"
   xmlns:svg="http://www.w3.org/2000/svg">
  <!-- Generator: Adobe Illustrator 29.2.1, SVG Export Plug-In . SVG Version: 2.1.0 Build 116)  -->
  <defs
     id="defs1">
    <style
       id="style1">
      .st0 {
        stroke-linecap: round;
        stroke-linejoin: round;
      }

      .st0, .st1 {
        fill: none;
        <!-- stroke: #666; -->

        stroke-width: 3px;
      }

      .st1 {
        stroke-miterlimit: 10;
      }
    </style>
  </defs>
  <g
     id="g12"
     transform="matrix(0.78888889,0,0,0.78928571,6.3333333,6.3214287)"
     style="stroke-width:3.80186083;stroke-dasharray:none">
    <rect
       class="st0"
       x="40"
       y="2"
       width="6"
       height="8"
       rx="2"
       ry="2"
       id="rect1"
       style="stroke-width:3.80186083;stroke-dasharray:none;fill:none" />
    <path
       class="st0"
       d="M 20,5"
       id="path1"
       style="stroke-width:3.80186083;stroke-dasharray:none" />
    <path
       class="st0"
       d="M 14,5"
       id="path2"
       style="stroke-width:3.80186083;stroke-dasharray:none" />
    <path
       class="st0"
       d="m 46,5 h 5 c 3.31,0 6,2.69 6,6 v 41 c 0,3.31 -2.69,6 -6,6 H 9 C 5.69,58 3,55.31 3,52 V 11 C 3,7.69 5.69,5 9,5 h 5"
       id="path3"
       style="stroke-width:3.80186083;stroke-dasharray:none;fill:none" />
    <path
       class="st0"
       d="M 40,5"
       id="path4"
       style="stroke-width:3.80186083;stroke-dasharray:none" />
    <path
       class="st0"
       d="M 40,5"
       id="path5"
       style="stroke-width:3.80186083;stroke-dasharray:none" />
    <path
       class="st0"
       d="M 20,5"
       id="path6"
       style="stroke-width:3.80186083;stroke-dasharray:none" />
    <rect
       class="st0"
       x="14"
       y="2"
       width="6"
       height="8"
       rx="2"
       ry="2"
       id="rect6"
       style="stroke-width:3.80186083;stroke-dasharray:none;fill:none" />
    <line
       class="st1"
       x1="20"
       y1="5"
       x2="40"
       y2="5"
       id="line6"
       style="stroke-width:3.80186083;stroke-dasharray:none" />
    <line
       class="st0"
       x1="3"
       y1="19"
       x2="57"
       y2="19"
       id="line7"
       style="stroke-width:3.80186083;stroke-dasharray:none" />
    <rect
       class="st0"
       x="11"
       y="27"
       width="8"
       height="8"
       rx="2"
       ry="2"
       id="rect7"
       style="stroke-width:3.80186083;stroke-dasharray:none;fill:none" />
    <rect
       class="st0"
       x="26"
       y="27"
       width="8"
       height="8"
       rx="2"
       ry="2"
       id="rect8"
       style="stroke-width:3.80186083;stroke-dasharray:none;fill:none" />
    <rect
       class="st0"
       x="41"
       y="27"
       width="8"
       height="8"
       rx="2"
       ry="2"
       id="rect9"
       style="stroke-width:3.80186083;stroke-dasharray:none;fill:none" />
    <rect
       class="st0"
       x="11"
       y="42"
       width="8"
       height="8"
       rx="2"
       ry="2"
       id="rect10"
       style="stroke-width:3.80186083;stroke-dasharray:none;fill:none" />
    <rect
       class="st0"
       x="26"
       y="42"
       width="8"
       height="8"
       rx="2"
       ry="2"
       id="rect11"
       style="stroke-width:3.80186083;stroke-dasharray:none;fill:none" />
    <rect
       class="st0"
       x="41"
       y="42"
       width="8"
       height="8"
       rx="2"
       ry="2"
       id="rect12"
       style="stroke-width:3.80186083;stroke-dasharray:none;fill:none" />
  </g>
</svg>
