<?xml version="1.0" encoding="UTF-8" standalone="no"?>
<!-- Created with Inkscape (http://www.inkscape.org/) -->

<svg
   width="60"
   height="60"
   viewBox="0 0 60 60"
   version="1.1"
   id="svg1"
   xml:space="preserve"
   xmlns="http://www.w3.org/2000/svg"
   xmlns:svg="http://www.w3.org/2000/svg"><defs
     id="defs1" /><g
     id="layer1"><g
       id="g23"><path
         style="fill:none;stroke-width:3;stroke-linecap:round;stroke-linejoin:round;stroke-dasharray:none;stroke-opacity:1"
         d="M 3,18 H 22 V 48 H 3 Z"
         id="path7" /><path
         style="fill:none;stroke-width:3;stroke-linecap:round;stroke-linejoin:round;stroke-dasharray:none;stroke-opacity:1"
         d="m 8,18 v -4 a 2,2 135 0 1 2,-2 h 4 a 2,2 45 0 1 2,2 v 4"
         id="path8" /><path
         style="fill:none;stroke-width:3;stroke-linecap:round;stroke-linejoin:round;stroke-dasharray:none;stroke-opacity:1"
         d="M 9,26 V 40"
         id="path9" /><path
         style="fill:none;stroke-width:3;stroke-linecap:round;stroke-linejoin:round;stroke-dasharray:none;stroke-opacity:1"
         d="m 22,18 4,2 v 26 l -4,2"
         id="path12" /><path
         style="fill:none;stroke-width:3;stroke-linecap:round;stroke-linejoin:round;stroke-dasharray:none;stroke-opacity:1"
         d="m 26,20 h 27 a 4,4 45 0 1 4,4 v 6 a 4,4 135 0 1 -4,4 h -2 a 7,7 135 0 0 -7,7 v 1 a 4,4 135 0 1 -4,4 H 26"
         id="path13" /><rect
         style="&#10;fill-opacity:1;stroke:none;stroke-width:3;stroke-linecap:round;stroke-linejoin:round;stroke-dasharray:none;stroke-opacity:1"
         id="rect13"
         width="2"
         height="2"
         x="28"
         y="23" /><rect
         style="&#10;fill-opacity:1;stroke:none;stroke-width:3;stroke-linecap:round;stroke-linejoin:round;stroke-dasharray:none;stroke-opacity:1"
         id="rect14"
         width="2"
         height="2"
         x="32"
         y="23" /><rect
         style="&#10;fill-opacity:1;stroke:none;stroke-width:3;stroke-linecap:round;stroke-linejoin:round;stroke-dasharray:none;stroke-opacity:1"
         id="rect15"
         width="2"
         height="2"
         x="36"
         y="23" /><rect
         style="&#10;fill-opacity:1;stroke:none;stroke-width:3;stroke-linecap:round;stroke-linejoin:round;stroke-dasharray:none;stroke-opacity:1"
         id="rect16"
         width="2"
         height="2"
         x="40"
         y="23" /><rect
         style="&#10;fill-opacity:1;stroke:none;stroke-width:3;stroke-linecap:round;stroke-linejoin:round;stroke-dasharray:none;stroke-opacity:1"
         id="rect17"
         width="2"
         height="2"
         x="44"
         y="23" /><rect
         style="&#10;fill-opacity:1;stroke:none;stroke-width:3;stroke-linecap:round;stroke-linejoin:round;stroke-dasharray:none;stroke-opacity:1"
         id="rect18"
         width="2"
         height="2"
         x="48"
         y="23" /><rect
         style="&#10;fill-opacity:1;stroke:none;stroke-width:3;stroke-linecap:round;stroke-linejoin:round;stroke-dasharray:none;stroke-opacity:1"
         id="rect19"
         width="2"
         height="2"
         x="52"
         y="23" /><rect
         style="&#10;fill-opacity:1;stroke:none;stroke-width:3;stroke-linecap:round;stroke-linejoin:round;stroke-dasharray:none;stroke-opacity:1"
         id="rect20"
         width="2"
         height="2"
         x="28"
         y="41" /><rect
         style="&#10;fill-opacity:1;stroke:none;stroke-width:3;stroke-linecap:round;stroke-linejoin:round;stroke-dasharray:none;stroke-opacity:1"
         id="rect21"
         width="2"
         height="2"
         x="32"
         y="41" /><rect
         style="&#10;fill-opacity:1;stroke:none;stroke-width:3;stroke-linecap:round;stroke-linejoin:round;stroke-dasharray:none;stroke-opacity:1"
         id="rect22"
         width="2"
         height="2"
         x="36"
         y="41" /><rect
         style="fill-opacity:1;stroke:none;stroke-width:3;stroke-linecap:round;stroke-linejoin:round;stroke-dasharray:none;stroke-opacity:1"
         id="rect23"
         width="2"
         height="2"
         x="40"
         y="41" /></g></g></svg>
