<?xml version="1.0" encoding="UTF-8" standalone="no"?>
<!-- Created with Inkscape (http://www.inkscape.org/) -->

<svg
   width="60"
   height="60"
   viewBox="0 0 60 60"
   version="1.1"
   id="svg1"
   xmlns="http://www.w3.org/2000/svg"
   xmlns:svg="http://www.w3.org/2000/svg">
  <defs
     id="defs1">
    <filter
       style="color-interpolation-filters:sRGB;"
       id="filter4"
       x="-0.19286898"
       y="-0.05217477"
       width="1.2785885"
       height="1.169568">
      <feFlood
         result="flood"
         in="SourceGraphic"
         flood-opacity="0.341176"
         flood-color="rgb(0,0,0)"
         id="feFlood3" />
      <feGaussianBlur
         result="blur"
         in="SourceGraphic"
         stdDeviation="1.000000"
         id="feGaussianBlur3"
         flood-opacity="0.34999999999999998" />
      <feOffset
         result="offset"
         in="blur"
         dx="-3"
         dy="3.000000"
         id="feOffset3" />
      <feComposite
         result="comp1"
         operator="out"
         in="flood"
         in2="offset"
         id="feComposite3" />
      <feComposite
         result="comp2"
         operator="atop"
         in="comp1"
         in2="SourceGraphic"
         id="feComposite4" />
    </filter>
  </defs>
  <g
     id="layer1">
    <path
       style="color:#000000;fill-opacity:1;stroke-width:1;stroke-linecap:round;stroke-linejoin:round;stroke-dasharray:none;stroke-opacity:1;filter:url(#filter4)"
       d="m 21,7 a 5,5 0 0 0 -3.535156,1.4648438 5,5 0 0 0 0,7.0703122 L 31.929687,30 17.464844,44.464844 a 5,5 0 0 0 0,7.070312 5,5 0 0 0 7.070312,0 l 18,-18 a 5.0005,5.0005 0 0 0 0,-7.070312 l -18,-18.0000002 A 5,5 0 0 0 21,7 Z"
       id="path1"
       transform="matrix(-1,0,0,1,58.499897,0)" />
  </g>
</svg>
